# xmcd
#
# Track frame offsets:
#	183
#	25695
#	40533
#
# Disc length: 798 seconds
#
# Revision: 0
# Processed by: cddbd v1.5.1PL0 Copyright (c) Steve Scherf et al.
# Submitted via: dBpowerAMP V4.0
#
DISCID=14031c03
DTITLE=Nina Simone - My Baby Just Cares For Me
DYEAR=1982
DGENRE=Blues
TTITLE0=My Baby Just Cares For Me (Special Extended Smoochtime Version)
TTITLE1=Love Me Or Leave Me
TTITLE2=Little Girl Blue
EXTD=
EXTT0=
EXTT1=
EXTT2=
PLAYORDER=
